<svg width="46" height="42" viewBox="0 0 46 42" fill="none" xmlns="http://www.w3.org/2000/svg">
<path d="M10.0625 19.6875H38.8125C39.1937 19.6875 39.5594 19.8258 39.829 20.0719C40.0986 20.3181 40.25 20.6519 40.25 21C40.25 21.3481 40.0986 21.6819 39.829 21.9281C39.5594 22.1742 39.1937 22.3125 38.8125 22.3125H10.0625C9.68125 22.3125 9.31562 22.1742 9.04603 21.9281C8.77645 21.6819 8.625 21.3481 8.625 21C8.625 20.6519 8.77645 20.3181 9.04603 20.0719C9.31562 19.8258 9.68125 19.6875 10.0625 19.6875Z" fill="#16CE92"/>
<path d="M10.6576 20.9999L22.5803 31.8832C22.8502 32.1297 23.0018 32.4639 23.0018 32.8124C23.0018 33.161 22.8502 33.4952 22.5803 33.7417C22.3103 33.9882 21.9442 34.1266 21.5625 34.1266C21.1808 34.1266 20.8147 33.9882 20.5448 33.7417L7.60726 21.9292C7.47339 21.8073 7.36718 21.6624 7.29471 21.503C7.22224 21.3435 7.18494 21.1726 7.18494 20.9999C7.18494 20.8273 7.22224 20.6564 7.29471 20.4969C7.36718 20.3375 7.47339 20.1926 7.60726 20.0707L20.5448 8.2582C20.8147 8.01175 21.1808 7.87329 21.5625 7.87329C21.9442 7.87329 22.3103 8.01175 22.5803 8.2582C22.8502 8.50465 23.0018 8.83891 23.0018 9.18745C23.0018 9.53599 22.8502 9.87025 22.5803 10.1167L10.6576 20.9999Z" fill="#16CE92"/>
</svg>
