<svg width="27" height="24" viewBox="0 0 27 24" fill="none" xmlns="http://www.w3.org/2000/svg">
<g clip-path="url(#clip0_4_1274)">
<path d="M21.9375 9H19.6875V6.5C19.6875 5.04131 19.0356 3.64236 17.8752 2.61091C16.7148 1.57946 15.141 1 13.5 1H12.375C10.734 1 9.16016 1.57946 7.99978 2.61091C6.8394 3.64236 6.1875 5.04131 6.1875 6.5V9H3.9375C3.63913 9 3.35298 9.10536 3.142 9.29289C2.93103 9.48043 2.8125 9.73478 2.8125 10V22C2.8125 22.2652 2.93103 22.5196 3.142 22.7071C3.35298 22.8946 3.63913 23 3.9375 23H21.9375C22.2359 23 22.522 22.8946 22.733 22.7071C22.944 22.5196 23.0625 22.2652 23.0625 22V10C23.0625 9.73478 22.944 9.48043 22.733 9.29289C22.522 9.10536 22.2359 9 21.9375 9ZM8.4375 6.5C8.4375 5.57174 8.85234 4.6815 9.59077 4.02513C10.3292 3.36875 11.3307 3 12.375 3H13.5C14.5443 3 15.5458 3.36875 16.2842 4.02513C17.0227 4.6815 17.4375 5.57174 17.4375 6.5V9H8.4375V6.5ZM20.8125 21H5.0625V11H20.8125V21Z" fill="#16CE92"/>
<path d="M8.4375 17.5C9.36948 17.5 10.125 16.8284 10.125 16C10.125 15.1716 9.36948 14.5 8.4375 14.5C7.50552 14.5 6.75 15.1716 6.75 16C6.75 16.8284 7.50552 17.5 8.4375 17.5Z" fill="#16CE92"/>
<path d="M12.9375 17.5C13.8695 17.5 14.625 16.8284 14.625 16C14.625 15.1716 13.8695 14.5 12.9375 14.5C12.0055 14.5 11.25 15.1716 11.25 16C11.25 16.8284 12.0055 17.5 12.9375 17.5Z" fill="#16CE92"/>
<path d="M17.4375 17.5C18.3695 17.5 19.125 16.8284 19.125 16C19.125 15.1716 18.3695 14.5 17.4375 14.5C16.5055 14.5 15.75 15.1716 15.75 16C15.75 16.8284 16.5055 17.5 17.4375 17.5Z" fill="#16CE92"/>
</g>
<defs>
<clipPath id="clip0_4_1274">
<rect width="27" height="24" fill="white"/>
</clipPath>
</defs>
</svg>
